<?xml version="1.0" standalone="no"?>
<!DOCTYPE svg PUBLIC "-//W3C//DTD SVG 20010904//EN"
 "http://www.w3.org/TR/2001/REC-SVG-20010904/DTD/svg10.dtd">
<svg version="1.0" xmlns="http://www.w3.org/2000/svg"
 width="700.000000pt" height="700.000000pt" viewBox="0 0 700.000000 700.000000"
 preserveAspectRatio="xMidYMid meet">
<metadata>
Created by potrace 1.14, written by Peter Selinger 2001-2017
</metadata>
<g transform="translate(0.000000,700.000000) scale(0.100000,-0.100000)"
fill="#000000" stroke="none">
<path d="M1250 6993 c-141 -15 -348 -77 -480 -143 -386 -196 -644 -533 -742
-971 l-23 -104 0 -2275 0 -2275 23 -104 c128 -569 527 -968 1095 -1093 l102
-23 2275 0 2275 0 100 22 c137 31 213 56 331 113 395 187 668 536 766 983 l23
102 0 2275 0 2275 -23 102 c-99 447 -371 796 -766 983 -118 56 -164 73 -306
108 l-105 27 -2255 1 c-1240 0 -2271 -1 -2290 -3z m2735 -1768 c464 -62 847
-273 1075 -593 71 -99 146 -241 133 -252 -4 -5 -152 -85 -328 -180 -176 -94
-343 -185 -372 -201 l-51 -28 -27 44 c-113 194 -302 340 -511 396 -116 32
-334 32 -459 1 -235 -59 -436 -215 -545 -422 -85 -165 -124 -393 -102 -608 24
-246 101 -421 247 -568 114 -114 244 -187 403 -226 123 -31 342 -30 457 1 211
57 371 177 492 368 l46 73 31 -19 c17 -10 186 -103 376 -206 190 -103 347
-189 349 -192 9 -7 -40 -97 -107 -198 -121 -185 -323 -360 -536 -467 -264
-133 -524 -189 -876 -188 -371 0 -650 62 -945 210 -513 258 -838 704 -920
1261 -20 138 -20 400 0 538 52 352 196 653 433 903 287 301 648 480 1122 554
66 10 300 19 410 16 52 -2 145 -9 205 -17z"/>
</g>
</svg>
